<svg height="512" viewBox="0 0 64 64" width="512" xmlns="http://www.w3.org/2000/svg"><g id="avatar-man-boy-male-person"><path d="m40 15h-20v10c0 .34.01.67.04 1s.07.65.12.97a11.986 11.986 0 0 0 3.35 6.52 12 12 0 0 0 12.49 2.82 12.006 12.006 0 0 0 7.84-9.34c.05-.32.09-.64.12-.97s.04-.66.04-1v-11.08a7.851 7.851 0 0 1 -4 1.08z" fill="#ffc477"/><path d="m44 13.92v11.08c0 .34-.01.67-.04 1s-.07.65-.12.97a12.006 12.006 0 0 1 -7.84 9.34 11.8 11.8 0 0 1 -4 .69 12 12 0 0 1 -2-.17 11.082 11.082 0 0 0 2-.52 12.006 12.006 0 0 0 7.84-9.34c.05-.32.09-.64.12-.97s.04-.66.04-1v-10a7.851 7.851 0 0 0 4-1.08z" fill="#ffa733"/><path d="m55 52.17v8.83h-46v-8.83a8 8 0 0 1 5.96-7.74l9.09-2.39 7.95 5.96 7.95-5.96 9.09 2.39a8 8 0 0 1 5.96 7.74z" fill="#c0ab91"/><path d="m55 52.17v8.83h-4v-8.83a8 8 0 0 0 -5.96-7.74l-6.13-1.61 1.04-.78 9.09 2.39a8 8 0 0 1 5.96 7.74z" fill="#a78966"/><path d="m48 3v4a7.969 7.969 0 0 1 -4 6.92 7.851 7.851 0 0 1 -4 1.08h-20v-4a8 8 0 0 1 8-8h8l-1 4 7-4v4z" fill="#ffd422"/><path d="m48 3v4a7.969 7.969 0 0 1 -4 6.92 7.851 7.851 0 0 1 -4 1.08h-4a7.851 7.851 0 0 0 4-1.08 7.969 7.969 0 0 0 4-6.92v-1.33z" fill="#ebbf00"/><path d="m44 18a4 4 0 1 1 0 8h-.04c.03-.33.04-.66.04-1z" fill="#ffc477"/><path d="m45 51v4l-3 2-3-2v-4z" fill="#957856"/><path d="m45 51v4l-3 2v-6z" fill="#806749"/><path d="m39.95 42.04-7.95 5.96-7.95-5.96 3.95-1.04v-4.69a11.939 11.939 0 0 0 8 0v4.69z" fill="#ffc477"/><path d="m20.04 26h-.04a4 4 0 0 1 0-8v7c0 .34.01.67.04 1z" fill="#ffc477"/><path d="m29 23a3 3 0 0 0 -6 0h2a1 1 0 0 1 2 0z"/><path d="m38 22a1 1 0 0 1 1 1h2a3 3 0 0 0 -6 0h2a1 1 0 0 1 1-1z"/><path d="m49.29 43.46-12.29-3.23v-3.23a13.022 13.022 0 0 0 7.84-10.08 4.982 4.982 0 0 0 4.16-4.92 5.017 5.017 0 0 0 -4-4.9v-2.62a9.01 9.01 0 0 0 4-7.48v-4a.984.984 0 0 0 -.53-.88.963.963 0 0 0 -1.02.05l-4.45 2.96v-2.13a.976.976 0 0 0 -.5-.86.994.994 0 0 0 -1-.01l-4.96 2.84.43-1.73a1.022 1.022 0 0 0 -.18-.86 1 1 0 0 0 -.79-.38h-8a9.014 9.014 0 0 0 -9 9v6.1a5 5 0 0 0 .15 9.82 12.946 12.946 0 0 0 7.85 10.09v3.22l-12.3 3.23a9.03 9.03 0 0 0 -6.7 8.71v8.83a1 1 0 0 0 1 1h46a1 1 0 0 0 1-1v-8.83a9.028 9.028 0 0 0 -6.71-8.71zm-30.29-18.64a3.179 3.179 0 0 1 -1.12-.69 3 3 0 0 1 1.12-4.95zm28-2.82a3 3 0 0 1 -.87 2.12 2.951 2.951 0 0 1 -1.13.69v-5.63a3.01 3.01 0 0 1 2 2.82zm-26-11a7.008 7.008 0 0 1 7-7h6.72l-.69 2.76a1 1 0 0 0 1.47 1.11l5.5-3.15v2.28a.984.984 0 0 0 .53.88.963.963 0 0 0 1.02-.05l4.45-2.96v2.13a7.008 7.008 0 0 1 -7 7h-19zm3.22 21.78a10.9 10.9 0 0 1 -3.22-7.78v-9h19a8.805 8.805 0 0 0 3-.53v9.53a11 11 0 0 1 -18.78 7.78zm4.03 9.19a1.014 1.014 0 0 0 .75-.97v-3.36a13.031 13.031 0 0 0 3 .36 12.9 12.9 0 0 0 3-.36v3.36a1.014 1.014 0 0 0 .75.97l1.95.51-5.7 4.27-5.7-4.27zm25.75 18.03h-44v-7.83a7.019 7.019 0 0 1 5.21-6.77l8.63-2.27 7.56 5.67a1 1 0 0 0 1.2 0l7.56-5.67 8.62 2.27a7.017 7.017 0 0 1 5.22 6.77z"/><path d="m23 11h2a3 3 0 0 1 3-3v-2a5.006 5.006 0 0 0 -5 5z"/><path d="m45 50h-6a1 1 0 0 0 -1 1v4a1 1 0 0 0 .445.832l3 2a1 1 0 0 0 1.11 0l3-2a1 1 0 0 0 .445-.832v-4a1 1 0 0 0 -1-1zm-1 4.465-2 1.335-2-1.333v-2.467h4z"/><path d="m37 29h-2c0 .249-1.064 1-3 1s-3-.751-3-1h-2c0 1.71 2.149 3 5 3s5-1.29 5-3z"/></g></svg>